<svg xmlns="http://www.w3.org/2000/svg" viewBox="0 0 480 30" width="480" height="30">
  <!-- Label -->
  <text x="10" y="20" font-family="'Courier New', monospace" fill="#c9d1d9" font-size="14">HITPOINTS  ::</text>

  <!-- Heart 1 - half full (pulsing via SMIL) -->
  <g transform="translate(155, 5) scale(1.3)">
    <!-- left half filled -->
    <rect x="2" y="0" width="2" height="2" fill="#dd2d4a"/>
    <rect x="4" y="0" width="2" height="2" fill="#dd2d4a"/>
    <rect x="0" y="2" width="2" height="2" fill="#dd2d4a"/>
    <rect x="2" y="2" width="2" height="2" fill="#dd2d4a"/>
    <rect x="4" y="2" width="2" height="2" fill="#dd2d4a"/>
    <rect x="0" y="4" width="2" height="2" fill="#dd2d4a"/>
    <rect x="2" y="4" width="2" height="2" fill="#dd2d4a"/>
    <rect x="4" y="4" width="2" height="2" fill="#dd2d4a"/>
    <rect x="0" y="6" width="2" height="2" fill="#dd2d4a"/>
    <rect x="2" y="6" width="2" height="2" fill="#dd2d4a"/>
    <rect x="4" y="6" width="2" height="2" fill="#dd2d4a"/>
    <rect x="2" y="8" width="2" height="2" fill="#dd2d4a"/>
    <rect x="4" y="8" width="2" height="2" fill="#dd2d4a"/>
    <rect x="4" y="10" width="2" height="2" fill="#dd2d4a"/>
    <!-- right half empty -->
    <rect x="8" y="0" width="2" height="2" fill="#333"/>
    <rect x="10" y="0" width="2" height="2" fill="#333"/>
    <rect x="6" y="2" width="2" height="2" fill="#333"/>
    <rect x="8" y="2" width="2" height="2" fill="#333"/>
    <rect x="10" y="2" width="2" height="2" fill="#333"/>
    <rect x="12" y="2" width="2" height="2" fill="#333"/>
    <rect x="6" y="4" width="2" height="2" fill="#333"/>
    <rect x="8" y="4" width="2" height="2" fill="#333"/>
    <rect x="10" y="4" width="2" height="2" fill="#333"/>
    <rect x="12" y="4" width="2" height="2" fill="#333"/>
    <rect x="6" y="6" width="2" height="2" fill="#333"/>
    <rect x="8" y="6" width="2" height="2" fill="#333"/>
    <rect x="10" y="6" width="2" height="2" fill="#333"/>
    <rect x="12" y="6" width="2" height="2" fill="#333"/>
    <rect x="6" y="8" width="2" height="2" fill="#333"/>
    <rect x="8" y="8" width="2" height="2" fill="#333"/>
    <rect x="10" y="8" width="2" height="2" fill="#333"/>
    <rect x="6" y="10" width="2" height="2" fill="#333"/>
    <rect x="8" y="10" width="2" height="2" fill="#333"/>
    <!-- pulse on the half heart -->
    <animate attributeName="opacity" values="1;0.4;1" dur="1.5s" repeatCount="indefinite"/>
  </g>

  <!-- Empty hearts 2-10 -->
  <g transform="translate(180, 5) scale(1.3)">
    <rect x="2" y="0" width="2" height="2" fill="#333"/><rect x="4" y="0" width="2" height="2" fill="#333"/><rect x="8" y="0" width="2" height="2" fill="#333"/><rect x="10" y="0" width="2" height="2" fill="#333"/>
    <rect x="0" y="2" width="14" height="2" fill="#333"/><rect x="0" y="4" width="14" height="2" fill="#333"/><rect x="0" y="6" width="14" height="2" fill="#333"/>
    <rect x="2" y="8" width="10" height="2" fill="#333"/><rect x="4" y="10" width="6" height="2" fill="#333"/><rect x="6" y="12" width="2" height="2" fill="#333"/>
  </g>
  <g transform="translate(205, 5) scale(1.3)">
    <rect x="2" y="0" width="2" height="2" fill="#333"/><rect x="4" y="0" width="2" height="2" fill="#333"/><rect x="8" y="0" width="2" height="2" fill="#333"/><rect x="10" y="0" width="2" height="2" fill="#333"/>
    <rect x="0" y="2" width="14" height="2" fill="#333"/><rect x="0" y="4" width="14" height="2" fill="#333"/><rect x="0" y="6" width="14" height="2" fill="#333"/>
    <rect x="2" y="8" width="10" height="2" fill="#333"/><rect x="4" y="10" width="6" height="2" fill="#333"/><rect x="6" y="12" width="2" height="2" fill="#333"/>
  </g>
  <g transform="translate(230, 5) scale(1.3)">
    <rect x="2" y="0" width="2" height="2" fill="#333"/><rect x="4" y="0" width="2" height="2" fill="#333"/><rect x="8" y="0" width="2" height="2" fill="#333"/><rect x="10" y="0" width="2" height="2" fill="#333"/>
    <rect x="0" y="2" width="14" height="2" fill="#333"/><rect x="0" y="4" width="14" height="2" fill="#333"/><rect x="0" y="6" width="14" height="2" fill="#333"/>
    <rect x="2" y="8" width="10" height="2" fill="#333"/><rect x="4" y="10" width="6" height="2" fill="#333"/><rect x="6" y="12" width="2" height="2" fill="#333"/>
  </g>
  <g transform="translate(255, 5) scale(1.3)">
    <rect x="2" y="0" width="2" height="2" fill="#333"/><rect x="4" y="0" width="2" height="2" fill="#333"/><rect x="8" y="0" width="2" height="2" fill="#333"/><rect x="10" y="0" width="2" height="2" fill="#333"/>
    <rect x="0" y="2" width="14" height="2" fill="#333"/><rect x="0" y="4" width="14" height="2" fill="#333"/><rect x="0" y="6" width="14" height="2" fill="#333"/>
    <rect x="2" y="8" width="10" height="2" fill="#333"/><rect x="4" y="10" width="6" height="2" fill="#333"/><rect x="6" y="12" width="2" height="2" fill="#333"/>
  </g>
  <g transform="translate(280, 5) scale(1.3)">
    <rect x="2" y="0" width="2" height="2" fill="#333"/><rect x="4" y="0" width="2" height="2" fill="#333"/><rect x="8" y="0" width="2" height="2" fill="#333"/><rect x="10" y="0" width="2" height="2" fill="#333"/>
    <rect x="0" y="2" width="14" height="2" fill="#333"/><rect x="0" y="4" width="14" height="2" fill="#333"/><rect x="0" y="6" width="14" height="2" fill="#333"/>
    <rect x="2" y="8" width="10" height="2" fill="#333"/><rect x="4" y="10" width="6" height="2" fill="#333"/><rect x="6" y="12" width="2" height="2" fill="#333"/>
  </g>
  <g transform="translate(305, 5) scale(1.3)">
    <rect x="2" y="0" width="2" height="2" fill="#333"/><rect x="4" y="0" width="2" height="2" fill="#333"/><rect x="8" y="0" width="2" height="2" fill="#333"/><rect x="10" y="0" width="2" height="2" fill="#333"/>
    <rect x="0" y="2" width="14" height="2" fill="#333"/><rect x="0" y="4" width="14" height="2" fill="#333"/><rect x="0" y="6" width="14" height="2" fill="#333"/>
    <rect x="2" y="8" width="10" height="2" fill="#333"/><rect x="4" y="10" width="6" height="2" fill="#333"/><rect x="6" y="12" width="2" height="2" fill="#333"/>
  </g>
  <g transform="translate(330, 5) scale(1.3)">
    <rect x="2" y="0" width="2" height="2" fill="#333"/><rect x="4" y="0" width="2" height="2" fill="#333"/><rect x="8" y="0" width="2" height="2" fill="#333"/><rect x="10" y="0" width="2" height="2" fill="#333"/>
    <rect x="0" y="2" width="14" height="2" fill="#333"/><rect x="0" y="4" width="14" height="2" fill="#333"/><rect x="0" y="6" width="14" height="2" fill="#333"/>
    <rect x="2" y="8" width="10" height="2" fill="#333"/><rect x="4" y="10" width="6" height="2" fill="#333"/><rect x="6" y="12" width="2" height="2" fill="#333"/>
  </g>
  <g transform="translate(355, 5) scale(1.3)">
    <rect x="2" y="0" width="2" height="2" fill="#333"/><rect x="4" y="0" width="2" height="2" fill="#333"/><rect x="8" y="0" width="2" height="2" fill="#333"/><rect x="10" y="0" width="2" height="2" fill="#333"/>
    <rect x="0" y="2" width="14" height="2" fill="#333"/><rect x="0" y="4" width="14" height="2" fill="#333"/><rect x="0" y="6" width="14" height="2" fill="#333"/>
    <rect x="2" y="8" width="10" height="2" fill="#333"/><rect x="4" y="10" width="6" height="2" fill="#333"/><rect x="6" y="12" width="2" height="2" fill="#333"/>
  </g>
</svg>
