<svg xmlns="http://www.w3.org/2000/svg" viewBox="0 0 520 48" width="520" height="48">
  <style>
    @keyframes pulse { 0%,100% { opacity: 1; } 50% { opacity: 0.4; } }
    .pulse { animation: pulse 1.5s ease-in-out infinite; }
  </style>

  <!-- Label -->
  <text x="8" y="32" font-family="'Courier New', monospace" fill="#c9d1d9" font-size="16" font-weight="bold">HP</text>

  <!-- Full Heart 1 -->
  <g transform="translate(40, 6) scale(2.2)">
    <rect x="1" y="0" width="3" height="1" fill="#dd2d4a"/>
    <rect x="7" y="0" width="3" height="1" fill="#dd2d4a"/>
    <rect x="0" y="1" width="5" height="1" fill="#dd2d4a"/>
    <rect x="6" y="1" width="5" height="1" fill="#dd2d4a"/>
    <rect x="0" y="2" width="11" height="1" fill="#dd2d4a"/>
    <rect x="0" y="3" width="11" height="1" fill="#dd2d4a"/>
    <rect x="1" y="4" width="9" height="1" fill="#dd2d4a"/>
    <rect x="2" y="5" width="7" height="1" fill="#dd2d4a"/>
    <rect x="3" y="6" width="5" height="1" fill="#dd2d4a"/>
    <rect x="4" y="7" width="3" height="1" fill="#dd2d4a"/>
    <rect x="5" y="8" width="1" height="1" fill="#dd2d4a"/>
    <!-- Highlight -->
    <rect x="1" y="1" width="2" height="1" fill="#ff5577" opacity="0.6"/>
    <rect x="1" y="2" width="1" height="1" fill="#ff5577" opacity="0.4"/>
  </g>

  <!-- Full Heart 2 -->
  <g transform="translate(72, 6) scale(2.2)">
    <rect x="1" y="0" width="3" height="1" fill="#dd2d4a"/>
    <rect x="7" y="0" width="3" height="1" fill="#dd2d4a"/>
    <rect x="0" y="1" width="5" height="1" fill="#dd2d4a"/>
    <rect x="6" y="1" width="5" height="1" fill="#dd2d4a"/>
    <rect x="0" y="2" width="11" height="1" fill="#dd2d4a"/>
    <rect x="0" y="3" width="11" height="1" fill="#dd2d4a"/>
    <rect x="1" y="4" width="9" height="1" fill="#dd2d4a"/>
    <rect x="2" y="5" width="7" height="1" fill="#dd2d4a"/>
    <rect x="3" y="6" width="5" height="1" fill="#dd2d4a"/>
    <rect x="4" y="7" width="3" height="1" fill="#dd2d4a"/>
    <rect x="5" y="8" width="1" height="1" fill="#dd2d4a"/>
    <rect x="1" y="1" width="2" height="1" fill="#ff5577" opacity="0.6"/>
    <rect x="1" y="2" width="1" height="1" fill="#ff5577" opacity="0.4"/>
  </g>

  <!-- Full Heart 3 -->
  <g transform="translate(104, 6) scale(2.2)">
    <rect x="1" y="0" width="3" height="1" fill="#dd2d4a"/>
    <rect x="7" y="0" width="3" height="1" fill="#dd2d4a"/>
    <rect x="0" y="1" width="5" height="1" fill="#dd2d4a"/>
    <rect x="6" y="1" width="5" height="1" fill="#dd2d4a"/>
    <rect x="0" y="2" width="11" height="1" fill="#dd2d4a"/>
    <rect x="0" y="3" width="11" height="1" fill="#dd2d4a"/>
    <rect x="1" y="4" width="9" height="1" fill="#dd2d4a"/>
    <rect x="2" y="5" width="7" height="1" fill="#dd2d4a"/>
    <rect x="3" y="6" width="5" height="1" fill="#dd2d4a"/>
    <rect x="4" y="7" width="3" height="1" fill="#dd2d4a"/>
    <rect x="5" y="8" width="1" height="1" fill="#dd2d4a"/>
    <rect x="1" y="1" width="2" height="1" fill="#ff5577" opacity="0.6"/>
    <rect x="1" y="2" width="1" height="1" fill="#ff5577" opacity="0.4"/>
  </g>

  <!-- Half Heart 4 (pulsing) -->
  <g transform="translate(136, 6) scale(2.2)" class="pulse">
    <!-- Left half filled -->
    <rect x="1" y="0" width="3" height="1" fill="#dd2d4a"/>
    <rect x="0" y="1" width="5" height="1" fill="#dd2d4a"/>
    <rect x="0" y="2" width="5" height="1" fill="#dd2d4a"/>
    <rect x="0" y="3" width="5" height="1" fill="#dd2d4a"/>
    <rect x="1" y="4" width="4" height="1" fill="#dd2d4a"/>
    <rect x="2" y="5" width="3" height="1" fill="#dd2d4a"/>
    <rect x="3" y="6" width="2" height="1" fill="#dd2d4a"/>
    <rect x="4" y="7" width="1" height="1" fill="#dd2d4a"/>
    <!-- Right half empty -->
    <rect x="7" y="0" width="3" height="1" fill="#333"/>
    <rect x="5" y="1" width="1" height="1" fill="#333"/>
    <rect x="6" y="1" width="5" height="1" fill="#333"/>
    <rect x="5" y="2" width="6" height="1" fill="#333"/>
    <rect x="5" y="3" width="6" height="1" fill="#333"/>
    <rect x="5" y="4" width="5" height="1" fill="#333"/>
    <rect x="5" y="5" width="4" height="1" fill="#333"/>
    <rect x="5" y="6" width="3" height="1" fill="#333"/>
    <rect x="5" y="7" width="2" height="1" fill="#333"/>
    <rect x="5" y="8" width="1" height="1" fill="#333"/>
    <!-- Highlight -->
    <rect x="1" y="1" width="2" height="1" fill="#ff5577" opacity="0.5"/>
  </g>

  <!-- Empty Heart 5 -->
  <g transform="translate(168, 6) scale(2.2)">
    <rect x="1" y="0" width="3" height="1" fill="#333"/>
    <rect x="7" y="0" width="3" height="1" fill="#333"/>
    <rect x="0" y="1" width="5" height="1" fill="#333"/>
    <rect x="6" y="1" width="5" height="1" fill="#333"/>
    <rect x="0" y="2" width="11" height="1" fill="#333"/>
    <rect x="0" y="3" width="11" height="1" fill="#333"/>
    <rect x="1" y="4" width="9" height="1" fill="#333"/>
    <rect x="2" y="5" width="7" height="1" fill="#333"/>
    <rect x="3" y="6" width="5" height="1" fill="#333"/>
    <rect x="4" y="7" width="3" height="1" fill="#333"/>
    <rect x="5" y="8" width="1" height="1" fill="#333"/>
  </g>

  <!-- Empty Heart 6 -->
  <g transform="translate(200, 6) scale(2.2)">
    <rect x="1" y="0" width="3" height="1" fill="#333"/>
    <rect x="7" y="0" width="3" height="1" fill="#333"/>
    <rect x="0" y="1" width="5" height="1" fill="#333"/>
    <rect x="6" y="1" width="5" height="1" fill="#333"/>
    <rect x="0" y="2" width="11" height="1" fill="#333"/>
    <rect x="0" y="3" width="11" height="1" fill="#333"/>
    <rect x="1" y="4" width="9" height="1" fill="#333"/>
    <rect x="2" y="5" width="7" height="1" fill="#333"/>
    <rect x="3" y="6" width="5" height="1" fill="#333"/>
    <rect x="4" y="7" width="3" height="1" fill="#333"/>
    <rect x="5" y="8" width="1" height="1" fill="#333"/>
  </g>

  <!-- Empty Heart 7 -->
  <g transform="translate(232, 6) scale(2.2)">
    <rect x="1" y="0" width="3" height="1" fill="#333"/>
    <rect x="7" y="0" width="3" height="1" fill="#333"/>
    <rect x="0" y="1" width="5" height="1" fill="#333"/>
    <rect x="6" y="1" width="5" height="1" fill="#333"/>
    <rect x="0" y="2" width="11" height="1" fill="#333"/>
    <rect x="0" y="3" width="11" height="1" fill="#333"/>
    <rect x="1" y="4" width="9" height="1" fill="#333"/>
    <rect x="2" y="5" width="7" height="1" fill="#333"/>
    <rect x="3" y="6" width="5" height="1" fill="#333"/>
    <rect x="4" y="7" width="3" height="1" fill="#333"/>
    <rect x="5" y="8" width="1" height="1" fill="#333"/>
  </g>

  <!-- Empty Heart 8 -->
  <g transform="translate(264, 6) scale(2.2)">
    <rect x="1" y="0" width="3" height="1" fill="#333"/>
    <rect x="7" y="0" width="3" height="1" fill="#333"/>
    <rect x="0" y="1" width="5" height="1" fill="#333"/>
    <rect x="6" y="1" width="5" height="1" fill="#333"/>
    <rect x="0" y="2" width="11" height="1" fill="#333"/>
    <rect x="0" y="3" width="11" height="1" fill="#333"/>
    <rect x="1" y="4" width="9" height="1" fill="#333"/>
    <rect x="2" y="5" width="7" height="1" fill="#333"/>
    <rect x="3" y="6" width="5" height="1" fill="#333"/>
    <rect x="4" y="7" width="3" height="1" fill="#333"/>
    <rect x="5" y="8" width="1" height="1" fill="#333"/>
  </g>

  <!-- Empty Heart 9 -->
  <g transform="translate(296, 6) scale(2.2)">
    <rect x="1" y="0" width="3" height="1" fill="#333"/>
    <rect x="7" y="0" width="3" height="1" fill="#333"/>
    <rect x="0" y="1" width="5" height="1" fill="#333"/>
    <rect x="6" y="1" width="5" height="1" fill="#333"/>
    <rect x="0" y="2" width="11" height="1" fill="#333"/>
    <rect x="0" y="3" width="11" height="1" fill="#333"/>
    <rect x="1" y="4" width="9" height="1" fill="#333"/>
    <rect x="2" y="5" width="7" height="1" fill="#333"/>
    <rect x="3" y="6" width="5" height="1" fill="#333"/>
    <rect x="4" y="7" width="3" height="1" fill="#333"/>
    <rect x="5" y="8" width="1" height="1" fill="#333"/>
  </g>

  <!-- Empty Heart 10 -->
  <g transform="translate(328, 6) scale(2.2)">
    <rect x="1" y="0" width="3" height="1" fill="#333"/>
    <rect x="7" y="0" width="3" height="1" fill="#333"/>
    <rect x="0" y="1" width="5" height="1" fill="#333"/>
    <rect x="6" y="1" width="5" height="1" fill="#333"/>
    <rect x="0" y="2" width="11" height="1" fill="#333"/>
    <rect x="0" y="3" width="11" height="1" fill="#333"/>
    <rect x="1" y="4" width="9" height="1" fill="#333"/>
    <rect x="2" y="5" width="7" height="1" fill="#333"/>
    <rect x="3" y="6" width="5" height="1" fill="#333"/>
    <rect x="4" y="7" width="3" height="1" fill="#333"/>
    <rect x="5" y="8" width="1" height="1" fill="#333"/>
  </g>
</svg>